<?xml version="1.0" encoding="UTF-8" standalone="no"?><svg xmlns="http://www.w3.org/2000/svg" xmlns:xlink="http://www.w3.org/1999/xlink" contentScriptType="application/ecmascript" contentStyleType="text/css" height="529px" preserveAspectRatio="none" style="width:2707px;height:529px;background:#FFFFFF;" version="1.1" viewBox="0 0 2707 529" width="2707px" zoomAndPan="magnify"><defs><filter height="300%" id="f15oeruplobpun" width="300%" x="-1" y="-1"><feGaussianBlur result="blurOut" stdDeviation="2.0"/><feColorMatrix in="blurOut" result="blurOut2" type="matrix" values="0 0 0 0 0 0 0 0 0 0 0 0 0 0 0 0 0 0 .4 0"/><feOffset dx="4.0" dy="4.0" in="blurOut2" result="blurOut3"/><feBlend in="SourceGraphic" in2="blurOut3" mode="normal"/></filter></defs><g><!--MD5=[8ac2b7cbf051537c486e9ca982608ed4]
cluster todoapp::providers::todos_provider.dart--><polygon fill="#FFFFFF" filter="url(#f15oeruplobpun)" points="16,165,343,165,350,187.2969,353,187.2969,353,350,16,350,16,165" style="stroke:#000000;stroke-width:1.5;"/><line style="stroke:#000000;stroke-width:1.5;" x1="16" x2="350" y1="187.2969" y2="187.2969"/><text fill="#000000" font-family="sans-serif" font-size="14" font-weight="bold" lengthAdjust="spacing" textLength="321" x="20" y="179.9951">todoapp::providers::todos_provider.dart</text><!--MD5=[11a7ffd249e6e4068679c7dd6695b3c6]
cluster flutter::src::foundation::change_notifier.dart--><polygon fill="#FFFFFF" filter="url(#f15oeruplobpun)" points="150,31.5,510,31.5,517,53.7969,520,53.7969,520,114.5,150,114.5,150,31.5" style="stroke:#000000;stroke-width:1.5;"/><line style="stroke:#000000;stroke-width:1.5;" x1="150" x2="517" y1="53.7969" y2="53.7969"/><text fill="#000000" font-family="sans-serif" font-size="14" font-weight="bold" lengthAdjust="spacing" textLength="354" x="154" y="46.4951">flutter::src::foundation::change_notifier.dart</text><!--MD5=[52c3129f195d47a5678d28a5fe8ed14a]
cluster todoapp::providers::todo.dart--><polygon fill="#FFFFFF" filter="url(#f15oeruplobpun)" points="361,171,605,171,612,193.2969,615,193.2969,615,344,361,344,361,171" style="stroke:#000000;stroke-width:1.5;"/><line style="stroke:#000000;stroke-width:1.5;" x1="361" x2="612" y1="193.2969" y2="193.2969"/><text fill="#000000" font-family="sans-serif" font-size="14" font-weight="bold" lengthAdjust="spacing" textLength="238" x="365" y="185.9951">todoapp::providers::todo.dart</text><!--MD5=[7987926876245f89cd5524e2dd8a51bb]
cluster todoapp::models::status_enum.dart--><polygon fill="#FFFFFF" filter="url(#f15oeruplobpun)" points="347,375,636,375,643,397.2969,646,397.2969,646,522,347,522,347,375" style="stroke:#000000;stroke-width:1.5;"/><line style="stroke:#000000;stroke-width:1.5;" x1="347" x2="643" y1="397.2969" y2="397.2969"/><text fill="#000000" font-family="sans-serif" font-size="14" font-weight="bold" lengthAdjust="spacing" textLength="283" x="351" y="389.9951">todoapp::models::status_enum.dart</text><!--MD5=[5ca094757509aa9f45b16e2aa7dc9ce2]
cluster todoapp::screens::todo_home_screen.dart--><polygon fill="#FFFFFF" filter="url(#f15oeruplobpun)" points="1066,12.5,1411,12.5,1418,34.7969,1542,34.7969,1542,133.5,1066,133.5,1066,12.5" style="stroke:#000000;stroke-width:1.5;"/><line style="stroke:#000000;stroke-width:1.5;" x1="1066" x2="1418" y1="34.7969" y2="34.7969"/><text fill="#000000" font-family="sans-serif" font-size="14" font-weight="bold" lengthAdjust="spacing" textLength="339" x="1070" y="27.4951">todoapp::screens::todo_home_screen.dart</text><!--MD5=[3e68ae0bfed7c964ab149dc4df7462bb]
cluster todoapp::screens::todo_detail_screen.dart--><polygon fill="#FFFFFF" filter="url(#f15oeruplobpun)" points="1555,18.5,1899,18.5,1906,40.7969,1909,40.7969,1909,127.5,1555,127.5,1555,18.5" style="stroke:#000000;stroke-width:1.5;"/><line style="stroke:#000000;stroke-width:1.5;" x1="1555" x2="1906" y1="40.7969" y2="40.7969"/><text fill="#000000" font-family="sans-serif" font-size="14" font-weight="bold" lengthAdjust="spacing" textLength="338" x="1559" y="33.4951">todoapp::screens::todo_detail_screen.dart</text><!--MD5=[e8b519b1d5ce2bfdd7fcdef2d7df94eb]
cluster todoapp::screens::add_todo_sceen.dart--><polygon fill="#FFFFFF" filter="url(#f15oeruplobpun)" points="550,6,873,6,880,28.2969,1047,28.2969,1047,140,550,140,550,6" style="stroke:#000000;stroke-width:1.5;"/><line style="stroke:#000000;stroke-width:1.5;" x1="550" x2="880" y1="28.2969" y2="28.2969"/><text fill="#000000" font-family="sans-serif" font-size="14" font-weight="bold" lengthAdjust="spacing" textLength="317" x="554" y="20.9951">todoapp::screens::add_todo_sceen.dart</text><!--MD5=[1b91236ccc4e258431d00b8b19fdf6ca]
cluster flutter::src::widgets::framework.dart--><polygon fill="#FFFFFF" filter="url(#f15oeruplobpun)" points="623,216,925,216,932,238.2969,935,238.2969,935,299,623,299,623,216" style="stroke:#000000;stroke-width:1.5;"/><line style="stroke:#000000;stroke-width:1.5;" x1="623" x2="932" y1="238.2969" y2="238.2969"/><text fill="#000000" font-family="sans-serif" font-size="14" font-weight="bold" lengthAdjust="spacing" textLength="296" x="627" y="230.9951">flutter::src::widgets::framework.dart</text><!--MD5=[a25b942844fb8832183e25e0cca57c25]
cluster todoapp::main.dart--><polygon fill="#FFFFFF" filter="url(#f15oeruplobpun)" points="1917,25,2074,25,2081,47.2969,2084,47.2969,2084,121,1917,121,1917,25" style="stroke:#000000;stroke-width:1.5;"/><line style="stroke:#000000;stroke-width:1.5;" x1="1917" x2="2081" y1="47.2969" y2="47.2969"/><text fill="#000000" font-family="sans-serif" font-size="14" font-weight="bold" lengthAdjust="spacing" textLength="151" x="1921" y="39.9951">todoapp::main.dart</text><!--MD5=[7e19b7e30e8bc55f0ae77918ea34dbd1]
cluster todoapp::widgets::todo_item.dart--><polygon fill="#FFFFFF" filter="url(#f15oeruplobpun)" points="2092,25,2364,25,2371,47.2969,2374,47.2969,2374,121,2092,121,2092,25" style="stroke:#000000;stroke-width:1.5;"/><line style="stroke:#000000;stroke-width:1.5;" x1="2092" x2="2371" y1="47.2969" y2="47.2969"/><text fill="#000000" font-family="sans-serif" font-size="14" font-weight="bold" lengthAdjust="spacing" textLength="266" x="2096" y="39.9951">todoapp::widgets::todo_item.dart</text><!--MD5=[0e876c7ec24cca04f82a865b872df78c]
cluster todoapp::widgets::todo_listview.dart--><polygon fill="#FFFFFF" filter="url(#f15oeruplobpun)" points="2382,18.5,2680,18.5,2687,40.7969,2690,40.7969,2690,127.5,2382,127.5,2382,18.5" style="stroke:#000000;stroke-width:1.5;"/><line style="stroke:#000000;stroke-width:1.5;" x1="2382" x2="2687" y1="40.7969" y2="40.7969"/><text fill="#000000" font-family="sans-serif" font-size="14" font-weight="bold" lengthAdjust="spacing" textLength="292" x="2386" y="33.4951">todoapp::widgets::todo_listview.dart</text><!--MD5=[bcea37cf4f09dc1e07d763bbc3601d79]
class todoapp::providers::todos_provider.dart::ToDosProvider--><rect codeLine="3" fill="#FEFECE" filter="url(#f15oeruplobpun)" height="150.4375" id="todoapp::providers::todos_provider.dart::ToDosProvider" style="stroke:#A80036;stroke-width:1.5;" width="188" x="157" y="192"/><ellipse cx="201.75" cy="208" fill="#ADD1B2" rx="11" ry="11" style="stroke:#A80036;stroke-width:1.0;"/><path d="M204.7188,213.6406 Q204.1406,213.9375 203.5,214.0781 Q202.8594,214.2344 202.1563,214.2344 Q199.6563,214.2344 198.3281,212.5938 Q197.0156,210.9375 197.0156,207.8125 Q197.0156,204.6875 198.3281,203.0313 Q199.6563,201.375 202.1563,201.375 Q202.8594,201.375 203.5,201.5313 Q204.1563,201.6875 204.7188,201.9844 L204.7188,204.7031 Q204.0938,204.125 203.5,203.8594 Q202.9063,203.5781 202.2813,203.5781 Q200.9375,203.5781 200.25,204.6563 Q199.5625,205.7188 199.5625,207.8125 Q199.5625,209.9063 200.25,210.9844 Q200.9375,212.0469 202.2813,212.0469 Q202.9063,212.0469 203.5,211.7813 Q204.0938,211.5 204.7188,210.9219 L204.7188,213.6406 Z " fill="#000000"/><text fill="#000000" font-family="sans-serif" font-size="12" lengthAdjust="spacing" textLength="90" x="222.25" y="212.1543">ToDosProvider</text><line style="stroke:#A80036;stroke-width:1.5;" x1="158" x2="344" y1="224" y2="224"/><rect fill="none" height="6" style="stroke:#C82930;stroke-width:1.0;" width="6" x="165" y="232"/><text fill="#000000" font-family="sans-serif" font-size="11" lengthAdjust="spacing" textLength="109" x="177" y="238.2104">List&lt;ToDo&gt; _todos</text><ellipse cx="168" cy="247.8047" rx="3" ry="3" style="stroke:#038048;stroke-width:1.0;fill:none;"/><text fill="#000000" font-family="sans-serif" font-size="11" lengthAdjust="spacing" textLength="103" x="177" y="251.0151">List&lt;ToDo&gt; items</text><ellipse cx="168" cy="260.6094" rx="3" ry="3" style="stroke:#038048;stroke-width:1.0;fill:none;"/><text fill="#000000" font-family="sans-serif" font-size="11" lengthAdjust="spacing" textLength="162" x="177" y="263.8198">List&lt;ToDo&gt; completedItems</text><ellipse cx="168" cy="273.4141" rx="3" ry="3" style="stroke:#038048;stroke-width:1.0;fill:none;"/><text fill="#000000" font-family="sans-serif" font-size="11" lengthAdjust="spacing" textLength="148" x="177" y="276.6245">List&lt;ToDo&gt; pendingItems</text><line style="stroke:#A80036;stroke-width:1.5;" x1="158" x2="344" y1="283.2188" y2="283.2188"/><ellipse cx="168" cy="294.2188" fill="#84BE84" rx="3" ry="3" style="stroke:#038048;stroke-width:1.0;"/><text fill="#000000" font-family="sans-serif" font-size="11" lengthAdjust="spacing" textLength="151" x="177" y="297.4292">List&lt;ToDo&gt; findByStatus()</text><ellipse cx="168" cy="307.0234" fill="#84BE84" rx="3" ry="3" style="stroke:#038048;stroke-width:1.0;"/><text fill="#000000" font-family="sans-serif" font-size="11" lengthAdjust="spacing" textLength="86" x="177" y="310.2339">ToDo findById()</text><ellipse cx="168" cy="319.8281" fill="#84BE84" rx="3" ry="3" style="stroke:#038048;stroke-width:1.0;"/><text fill="#000000" font-family="sans-serif" font-size="11" lengthAdjust="spacing" textLength="135" x="177" y="323.0386">void updateStatusById()</text><ellipse cx="168" cy="332.6328" fill="#84BE84" rx="3" ry="3" style="stroke:#038048;stroke-width:1.0;"/><text fill="#000000" font-family="sans-serif" font-size="11" lengthAdjust="spacing" textLength="85" x="177" y="335.8433">void addToDo()</text><!--MD5=[4bdc211f364e4b76e397883af82a26e7]
class flutter::src::foundation::change_notifier.dart::ChangeNotifier--><rect fill="#FEFECE" filter="url(#f15oeruplobpun)" height="48" id="flutter::src::foundation::change_notifier.dart::ChangeNotifier" style="stroke:#A80036;stroke-width:1.5;" width="125" x="240.5" y="58.5"/><ellipse cx="255.5" cy="74.5" fill="#ADD1B2" rx="11" ry="11" style="stroke:#A80036;stroke-width:1.0;"/><path d="M258.4688,80.1406 Q257.8906,80.4375 257.25,80.5781 Q256.6094,80.7344 255.9063,80.7344 Q253.4063,80.7344 252.0781,79.0938 Q250.7656,77.4375 250.7656,74.3125 Q250.7656,71.1875 252.0781,69.5313 Q253.4063,67.875 255.9063,67.875 Q256.6094,67.875 257.25,68.0313 Q257.9063,68.1875 258.4688,68.4844 L258.4688,71.2031 Q257.8438,70.625 257.25,70.3594 Q256.6563,70.0781 256.0313,70.0781 Q254.6875,70.0781 254,71.1563 Q253.3125,72.2188 253.3125,74.3125 Q253.3125,76.4063 254,77.4844 Q254.6875,78.5469 256.0313,78.5469 Q256.6563,78.5469 257.25,78.2813 Q257.8438,78 258.4688,77.4219 L258.4688,80.1406 Z " fill="#000000"/><text fill="#000000" font-family="sans-serif" font-size="12" lengthAdjust="spacing" textLength="93" x="269.5" y="78.6543">ChangeNotifier</text><line style="stroke:#A80036;stroke-width:1.5;" x1="241.5" x2="364.5" y1="90.5" y2="90.5"/><line style="stroke:#A80036;stroke-width:1.5;" x1="241.5" x2="364.5" y1="98.5" y2="98.5"/><!--MD5=[0398924a68be0fd600bccb695ba4b8de]
class todoapp::providers::todo.dart::ToDo--><rect codeLine="16" fill="#FEFECE" filter="url(#f15oeruplobpun)" height="137.6328" id="todoapp::providers::todo.dart::ToDo" style="stroke:#A80036;stroke-width:1.5;" width="134" x="420" y="198"/><ellipse cx="466.75" cy="214" fill="#ADD1B2" rx="11" ry="11" style="stroke:#A80036;stroke-width:1.0;"/><path d="M469.7188,219.6406 Q469.1406,219.9375 468.5,220.0781 Q467.8594,220.2344 467.1563,220.2344 Q464.6563,220.2344 463.3281,218.5938 Q462.0156,216.9375 462.0156,213.8125 Q462.0156,210.6875 463.3281,209.0313 Q464.6563,207.375 467.1563,207.375 Q467.8594,207.375 468.5,207.5313 Q469.1563,207.6875 469.7188,207.9844 L469.7188,210.7031 Q469.0938,210.125 468.5,209.8594 Q467.9063,209.5781 467.2813,209.5781 Q465.9375,209.5781 465.25,210.6563 Q464.5625,211.7188 464.5625,213.8125 Q464.5625,215.9063 465.25,216.9844 Q465.9375,218.0469 467.2813,218.0469 Q467.9063,218.0469 468.5,217.7813 Q469.0938,217.5 469.7188,216.9219 L469.7188,219.6406 Z " fill="#000000"/><text fill="#000000" font-family="sans-serif" font-size="12" lengthAdjust="spacing" textLength="32" x="487.25" y="218.1543">ToDo</text><line style="stroke:#A80036;stroke-width:1.5;" x1="421" x2="553" y1="230" y2="230"/><ellipse cx="431" cy="241" rx="3" ry="3" style="stroke:#038048;stroke-width:1.0;fill:none;"/><text fill="#000000" font-family="sans-serif" font-size="11" lengthAdjust="spacing" textLength="48" x="440" y="244.2104">String id</text><ellipse cx="431" cy="253.8047" rx="3" ry="3" style="stroke:#038048;stroke-width:1.0;fill:none;"/><text fill="#000000" font-family="sans-serif" font-size="11" lengthAdjust="spacing" textLength="59" x="440" y="257.0151">String title</text><ellipse cx="431" cy="266.6094" rx="3" ry="3" style="stroke:#038048;stroke-width:1.0;fill:none;"/><text fill="#000000" font-family="sans-serif" font-size="11" lengthAdjust="spacing" textLength="65" x="440" y="269.8198">String body</text><ellipse cx="431" cy="279.4141" rx="3" ry="3" style="stroke:#038048;stroke-width:1.0;fill:none;"/><text fill="#000000" font-family="sans-serif" font-size="11" lengthAdjust="spacing" textLength="106" x="440" y="282.6245">DateTime deadline</text><ellipse cx="431" cy="292.2188" rx="3" ry="3" style="stroke:#038048;stroke-width:1.0;fill:none;"/><text fill="#000000" font-family="sans-serif" font-size="11" lengthAdjust="spacing" textLength="77" x="440" y="295.4292">Status status</text><ellipse cx="431" cy="305.0234" rx="3" ry="3" style="stroke:#038048;stroke-width:1.0;fill:none;"/><text fill="#000000" font-family="sans-serif" font-size="11" lengthAdjust="spacing" textLength="108" x="440" y="308.2339">String statusString</text><line style="stroke:#A80036;stroke-width:1.5;" x1="421" x2="553" y1="314.8281" y2="314.8281"/><ellipse cx="431" cy="325.8281" fill="#84BE84" rx="3" ry="3" style="stroke:#038048;stroke-width:1.0;"/><text fill="#000000" font-family="sans-serif" font-size="11" lengthAdjust="spacing" textLength="107" x="440" y="329.0386">void updateStaus()</text><!--MD5=[5a06a1b06b3ed95b9040ef582014f360]
class todoapp::models::status_enum.dart::Status--><rect codeLine="29" fill="#FEFECE" filter="url(#f15oeruplobpun)" height="112.0234" id="todoapp::models::status_enum.dart::Status" style="stroke:#A80036;stroke-width:1.5;" width="142" x="416" y="402"/><ellipse cx="462.25" cy="418" fill="#ADD1B2" rx="11" ry="11" style="stroke:#A80036;stroke-width:1.0;"/><path d="M465.2188,423.6406 Q464.6406,423.9375 464,424.0781 Q463.3594,424.2344 462.6563,424.2344 Q460.1563,424.2344 458.8281,422.5938 Q457.5156,420.9375 457.5156,417.8125 Q457.5156,414.6875 458.8281,413.0313 Q460.1563,411.375 462.6563,411.375 Q463.3594,411.375 464,411.5313 Q464.6563,411.6875 465.2188,411.9844 L465.2188,414.7031 Q464.5938,414.125 464,413.8594 Q463.4063,413.5781 462.7813,413.5781 Q461.4375,413.5781 460.75,414.6563 Q460.0625,415.7188 460.0625,417.8125 Q460.0625,419.9063 460.75,420.9844 Q461.4375,422.0469 462.7813,422.0469 Q463.4063,422.0469 464,421.7813 Q464.5938,421.5 465.2188,420.9219 L465.2188,423.6406 Z " fill="#000000"/><text fill="#000000" font-family="sans-serif" font-size="12" lengthAdjust="spacing" textLength="41" x="482.75" y="422.1543">Status</text><line style="stroke:#A80036;stroke-width:1.5;" x1="417" x2="557" y1="434" y2="434"/><ellipse cx="427" cy="445" rx="3" ry="3" style="stroke:#038048;stroke-width:1.0;fill:none;"/><text fill="#000000" font-family="sans-serif" font-size="11" lengthAdjust="spacing" textLength="48" x="436" y="448.2104">int index</text><ellipse cx="427" cy="457.8047" rx="3" ry="3" style="stroke:#038048;stroke-width:1.0;fill:none;"/><text fill="#000000" font-family="sans-serif" font-size="11" lengthAdjust="spacing" text-decoration="underline" textLength="116" x="436" y="461.0151">List&lt;Status&gt; values</text><ellipse cx="427" cy="470.6094" rx="3" ry="3" style="stroke:#038048;stroke-width:1.0;fill:none;"/><text fill="#000000" font-family="sans-serif" font-size="11" lengthAdjust="spacing" text-decoration="underline" textLength="86" x="436" y="473.8198">Status pending</text><ellipse cx="427" cy="483.4141" rx="3" ry="3" style="stroke:#038048;stroke-width:1.0;fill:none;"/><text fill="#000000" font-family="sans-serif" font-size="11" lengthAdjust="spacing" text-decoration="underline" textLength="100" x="436" y="486.6245">Status completed</text><ellipse cx="427" cy="496.2188" rx="3" ry="3" style="stroke:#038048;stroke-width:1.0;fill:none;"/><text fill="#000000" font-family="sans-serif" font-size="11" lengthAdjust="spacing" text-decoration="underline" textLength="87" x="436" y="499.4292">Status overdue</text><line style="stroke:#A80036;stroke-width:1.5;" x1="417" x2="557" y1="506.0234" y2="506.0234"/><!--MD5=[3c200da03985c1f0ef39024ea3529179]
class todoapp::screens::todo_home_screen.dart::TodoHomeScreen--><rect codeLine="39" fill="#FEFECE" filter="url(#f15oeruplobpun)" height="60.8047" id="todoapp::screens::todo_home_screen.dart::TodoHomeScreen" style="stroke:#A80036;stroke-width:1.5;" width="241" x="1292.5" y="52"/><ellipse cx="1353.25" cy="68" fill="#ADD1B2" rx="11" ry="11" style="stroke:#A80036;stroke-width:1.0;"/><path d="M1356.2188,73.6406 Q1355.6406,73.9375 1355,74.0781 Q1354.3594,74.2344 1353.6563,74.2344 Q1351.1563,74.2344 1349.8281,72.5938 Q1348.5156,70.9375 1348.5156,67.8125 Q1348.5156,64.6875 1349.8281,63.0313 Q1351.1563,61.375 1353.6563,61.375 Q1354.3594,61.375 1355,61.5313 Q1355.6563,61.6875 1356.2188,61.9844 L1356.2188,64.7031 Q1355.5938,64.125 1355,63.8594 Q1354.4063,63.5781 1353.7813,63.5781 Q1352.4375,63.5781 1351.75,64.6563 Q1351.0625,65.7188 1351.0625,67.8125 Q1351.0625,69.9063 1351.75,70.9844 Q1352.4375,72.0469 1353.7813,72.0469 Q1354.4063,72.0469 1355,71.7813 Q1355.5938,71.5 1356.2188,70.9219 L1356.2188,73.6406 Z " fill="#000000"/><text fill="#000000" font-family="sans-serif" font-size="12" lengthAdjust="spacing" textLength="111" x="1373.75" y="72.1543">TodoHomeScreen</text><line style="stroke:#A80036;stroke-width:1.5;" x1="1293.5" x2="1532.5" y1="84" y2="84"/><line style="stroke:#A80036;stroke-width:1.5;" x1="1293.5" x2="1532.5" y1="92" y2="92"/><ellipse cx="1303.5" cy="103" fill="#84BE84" rx="3" ry="3" style="stroke:#038048;stroke-width:1.0;"/><text fill="#000000" font-family="sans-serif" font-size="11" lengthAdjust="spacing" textLength="215" x="1312.5" y="106.2104">_TodoHomeScreenState createState()</text><!--MD5=[4ecb630617888de68ef900b417ff5f5b]
class todoapp::screens::todo_home_screen.dart::_TodoHomeScreenState--><rect codeLine="43" fill="#FEFECE" filter="url(#f15oeruplobpun)" height="86.4141" id="todoapp::screens::todo_home_screen.dart::_TodoHomeScreenState" style="stroke:#A80036;stroke-width:1.5;" width="183" x="1074.5" y="39.5"/><ellipse cx="1089.5" cy="55.5" fill="#ADD1B2" rx="11" ry="11" style="stroke:#A80036;stroke-width:1.0;"/><path d="M1092.4688,61.1406 Q1091.8906,61.4375 1091.25,61.5781 Q1090.6094,61.7344 1089.9063,61.7344 Q1087.4063,61.7344 1086.0781,60.0938 Q1084.7656,58.4375 1084.7656,55.3125 Q1084.7656,52.1875 1086.0781,50.5313 Q1087.4063,48.875 1089.9063,48.875 Q1090.6094,48.875 1091.25,49.0313 Q1091.9063,49.1875 1092.4688,49.4844 L1092.4688,52.2031 Q1091.8438,51.625 1091.25,51.3594 Q1090.6563,51.0781 1090.0313,51.0781 Q1088.6875,51.0781 1088,52.1563 Q1087.3125,53.2188 1087.3125,55.3125 Q1087.3125,57.4063 1088,58.4844 Q1088.6875,59.5469 1090.0313,59.5469 Q1090.6563,59.5469 1091.25,59.2813 Q1091.8438,59 1092.4688,58.4219 L1092.4688,61.1406 Z " fill="#000000"/><text fill="#000000" font-family="sans-serif" font-size="12" lengthAdjust="spacing" textLength="151" x="1103.5" y="59.6543">_TodoHomeScreenState</text><line style="stroke:#A80036;stroke-width:1.5;" x1="1075.5" x2="1256.5" y1="71.5" y2="71.5"/><rect fill="none" height="6" style="stroke:#C82930;stroke-width:1.0;" width="6" x="1082.5" y="79.5"/><text fill="#000000" font-family="sans-serif" font-size="11" lengthAdjust="spacing" textLength="72" x="1094.5" y="85.7104">int _tabIndex</text><line style="stroke:#A80036;stroke-width:1.5;" x1="1075.5" x2="1256.5" y1="92.3047" y2="92.3047"/><rect fill="#F24D5C" height="6" style="stroke:#C82930;stroke-width:1.0;" width="6" x="1082.5" y="100.3047"/><text fill="#000000" font-family="sans-serif" font-size="11" lengthAdjust="spacing" textLength="96" x="1094.5" y="106.5151">void _selectTab()</text><ellipse cx="1085.5" cy="116.1094" fill="#84BE84" rx="3" ry="3" style="stroke:#038048;stroke-width:1.0;"/><text fill="#000000" font-family="sans-serif" font-size="11" lengthAdjust="spacing" textLength="76" x="1094.5" y="119.3198">Widget build()</text><!--MD5=[99c8dacb8e5e49fb630c787c08581c31]
class todoapp::screens::todo_detail_screen.dart::TooDetailScreen--><rect codeLine="49" fill="#FEFECE" filter="url(#f15oeruplobpun)" height="73.6094" id="todoapp::screens::todo_detail_screen.dart::TooDetailScreen" style="stroke:#A80036;stroke-width:1.5;" width="135" x="1661.5" y="45.5"/><ellipse cx="1676.5" cy="61.5" fill="#ADD1B2" rx="11" ry="11" style="stroke:#A80036;stroke-width:1.0;"/><path d="M1679.4688,67.1406 Q1678.8906,67.4375 1678.25,67.5781 Q1677.6094,67.7344 1676.9063,67.7344 Q1674.4063,67.7344 1673.0781,66.0938 Q1671.7656,64.4375 1671.7656,61.3125 Q1671.7656,58.1875 1673.0781,56.5313 Q1674.4063,54.875 1676.9063,54.875 Q1677.6094,54.875 1678.25,55.0313 Q1678.9063,55.1875 1679.4688,55.4844 L1679.4688,58.2031 Q1678.8438,57.625 1678.25,57.3594 Q1677.6563,57.0781 1677.0313,57.0781 Q1675.6875,57.0781 1675,58.1563 Q1674.3125,59.2188 1674.3125,61.3125 Q1674.3125,63.4063 1675,64.4844 Q1675.6875,65.5469 1677.0313,65.5469 Q1677.6563,65.5469 1678.25,65.2813 Q1678.8438,65 1679.4688,64.4219 L1679.4688,67.1406 Z " fill="#000000"/><text fill="#000000" font-family="sans-serif" font-size="12" lengthAdjust="spacing" textLength="103" x="1690.5" y="65.6543">TooDetailScreen</text><line style="stroke:#A80036;stroke-width:1.5;" x1="1662.5" x2="1795.5" y1="77.5" y2="77.5"/><ellipse cx="1672.5" cy="88.5" rx="3" ry="3" style="stroke:#038048;stroke-width:1.0;fill:none;"/><text fill="#000000" font-family="sans-serif" font-size="11" lengthAdjust="spacing" text-decoration="underline" textLength="101" x="1681.5" y="91.7104">String routeName</text><line style="stroke:#A80036;stroke-width:1.5;" x1="1662.5" x2="1795.5" y1="98.3047" y2="98.3047"/><ellipse cx="1672.5" cy="109.3047" fill="#84BE84" rx="3" ry="3" style="stroke:#038048;stroke-width:1.0;"/><text fill="#000000" font-family="sans-serif" font-size="11" lengthAdjust="spacing" textLength="76" x="1681.5" y="112.5151">Widget build()</text><!--MD5=[1ce044c8c9f0f4d043b4bb832bf321af]
class todoapp::screens::add_todo_sceen.dart::AddToDoScreen--><rect codeLine="54" fill="#FEFECE" filter="url(#f15oeruplobpun)" height="73.6094" id="todoapp::screens::add_todo_sceen.dart::AddToDoScreen" style="stroke:#A80036;stroke-width:1.5;" width="230" x="809" y="45.5"/><ellipse cx="869.75" cy="61.5" fill="#ADD1B2" rx="11" ry="11" style="stroke:#A80036;stroke-width:1.0;"/><path d="M872.7188,67.1406 Q872.1406,67.4375 871.5,67.5781 Q870.8594,67.7344 870.1563,67.7344 Q867.6563,67.7344 866.3281,66.0938 Q865.0156,64.4375 865.0156,61.3125 Q865.0156,58.1875 866.3281,56.5313 Q867.6563,54.875 870.1563,54.875 Q870.8594,54.875 871.5,55.0313 Q872.1563,55.1875 872.7188,55.4844 L872.7188,58.2031 Q872.0938,57.625 871.5,57.3594 Q870.9063,57.0781 870.2813,57.0781 Q868.9375,57.0781 868.25,58.1563 Q867.5625,59.2188 867.5625,61.3125 Q867.5625,63.4063 868.25,64.4844 Q868.9375,65.5469 870.2813,65.5469 Q870.9063,65.5469 871.5,65.2813 Q872.0938,65 872.7188,64.4219 L872.7188,67.1406 Z " fill="#000000"/><text fill="#000000" font-family="sans-serif" font-size="12" lengthAdjust="spacing" textLength="100" x="890.25" y="65.6543">AddToDoScreen</text><line style="stroke:#A80036;stroke-width:1.5;" x1="810" x2="1038" y1="77.5" y2="77.5"/><ellipse cx="820" cy="88.5" rx="3" ry="3" style="stroke:#038048;stroke-width:1.0;fill:none;"/><text fill="#000000" font-family="sans-serif" font-size="11" lengthAdjust="spacing" text-decoration="underline" textLength="101" x="829" y="91.7104">String routeName</text><line style="stroke:#A80036;stroke-width:1.5;" x1="810" x2="1038" y1="98.3047" y2="98.3047"/><ellipse cx="820" cy="109.3047" fill="#84BE84" rx="3" ry="3" style="stroke:#038048;stroke-width:1.0;"/><text fill="#000000" font-family="sans-serif" font-size="11" lengthAdjust="spacing" textLength="204" x="829" y="112.5151">_AddToDoScreenState createState()</text><!--MD5=[72b0445a197a9e3c591dc130319b8776]
class todoapp::screens::add_todo_sceen.dart::_AddToDoScreenState--><rect codeLine="59" fill="#FEFECE" filter="url(#f15oeruplobpun)" height="99.2188" id="todoapp::screens::add_todo_sceen.dart::_AddToDoScreenState" style="stroke:#A80036;stroke-width:1.5;" width="215" x="558.5" y="33"/><ellipse cx="592.85" cy="49" fill="#ADD1B2" rx="11" ry="11" style="stroke:#A80036;stroke-width:1.0;"/><path d="M595.8188,54.6406 Q595.2406,54.9375 594.6,55.0781 Q593.9594,55.2344 593.2563,55.2344 Q590.7563,55.2344 589.4281,53.5938 Q588.1156,51.9375 588.1156,48.8125 Q588.1156,45.6875 589.4281,44.0313 Q590.7563,42.375 593.2563,42.375 Q593.9594,42.375 594.6,42.5313 Q595.2563,42.6875 595.8188,42.9844 L595.8188,45.7031 Q595.1938,45.125 594.6,44.8594 Q594.0063,44.5781 593.3813,44.5781 Q592.0375,44.5781 591.35,45.6563 Q590.6625,46.7188 590.6625,48.8125 Q590.6625,50.9063 591.35,51.9844 Q592.0375,53.0469 593.3813,53.0469 Q594.0063,53.0469 594.6,52.7813 Q595.1938,52.5 595.8188,51.9219 L595.8188,54.6406 Z " fill="#000000"/><text fill="#000000" font-family="sans-serif" font-size="12" lengthAdjust="spacing" textLength="140" x="611.15" y="53.1543">_AddToDoScreenState</text><line style="stroke:#A80036;stroke-width:1.5;" x1="559.5" x2="772.5" y1="65" y2="65"/><rect fill="none" height="6" style="stroke:#C82930;stroke-width:1.0;" width="6" x="566.5" y="73"/><text fill="#000000" font-family="sans-serif" font-size="11" lengthAdjust="spacing" textLength="189" x="578.5" y="79.2104">GlobalKey&lt;FormState&gt; _formkey</text><ellipse cx="569.5" cy="88.8047" rx="3" ry="3" style="stroke:#038048;stroke-width:1.0;fill:none;"/><text fill="#000000" font-family="sans-serif" font-size="11" lengthAdjust="spacing" textLength="85" x="578.5" y="92.0151">ToDo newToDo</text><line style="stroke:#A80036;stroke-width:1.5;" x1="559.5" x2="772.5" y1="98.6094" y2="98.6094"/><rect fill="#F24D5C" height="6" style="stroke:#C82930;stroke-width:1.0;" width="6" x="566.5" y="106.6094"/><text fill="#000000" font-family="sans-serif" font-size="11" lengthAdjust="spacing" textLength="119" x="578.5" y="112.8198">dynamic _onSubmit()</text><ellipse cx="569.5" cy="122.4141" fill="#84BE84" rx="3" ry="3" style="stroke:#038048;stroke-width:1.0;"/><text fill="#000000" font-family="sans-serif" font-size="11" lengthAdjust="spacing" textLength="76" x="578.5" y="125.6245">Widget build()</text><!--MD5=[63bfe514f6548a169dac7789c902e03b]
class flutter::src::widgets::framework.dart::GlobalKey<FormState>--><rect fill="#FEFECE" filter="url(#f15oeruplobpun)" height="48" id="flutter::src::widgets::framework.dart::GlobalKey&lt;FormState&gt;" style="stroke:#A80036;stroke-width:1.5;" width="177" x="630.5" y="243"/><ellipse cx="645.5" cy="259" fill="#ADD1B2" rx="11" ry="11" style="stroke:#A80036;stroke-width:1.0;"/><path d="M648.4688,264.6406 Q647.8906,264.9375 647.25,265.0781 Q646.6094,265.2344 645.9063,265.2344 Q643.4063,265.2344 642.0781,263.5938 Q640.7656,261.9375 640.7656,258.8125 Q640.7656,255.6875 642.0781,254.0313 Q643.4063,252.375 645.9063,252.375 Q646.6094,252.375 647.25,252.5313 Q647.9063,252.6875 648.4688,252.9844 L648.4688,255.7031 Q647.8438,255.125 647.25,254.8594 Q646.6563,254.5781 646.0313,254.5781 Q644.6875,254.5781 644,255.6563 Q643.3125,256.7188 643.3125,258.8125 Q643.3125,260.9063 644,261.9844 Q644.6875,263.0469 646.0313,263.0469 Q646.6563,263.0469 647.25,262.7813 Q647.8438,262.5 648.4688,261.9219 L648.4688,264.6406 Z " fill="#000000"/><text fill="#000000" font-family="sans-serif" font-size="12" lengthAdjust="spacing" textLength="145" x="659.5" y="263.1543">GlobalKey&lt;FormState&gt;</text><line style="stroke:#A80036;stroke-width:1.5;" x1="631.5" x2="806.5" y1="275" y2="275"/><line style="stroke:#A80036;stroke-width:1.5;" x1="631.5" x2="806.5" y1="283" y2="283"/><!--MD5=[000ded9359124e51575530966bd89837]
class todoapp::main.dart::MyApp--><rect codeLine="69" fill="#FEFECE" filter="url(#f15oeruplobpun)" height="60.8047" id="todoapp::main.dart::MyApp" style="stroke:#A80036;stroke-width:1.5;" width="102" x="1944" y="52"/><ellipse cx="1972.5" cy="68" fill="#ADD1B2" rx="11" ry="11" style="stroke:#A80036;stroke-width:1.0;"/><path d="M1975.4688,73.6406 Q1974.8906,73.9375 1974.25,74.0781 Q1973.6094,74.2344 1972.9063,74.2344 Q1970.4063,74.2344 1969.0781,72.5938 Q1967.7656,70.9375 1967.7656,67.8125 Q1967.7656,64.6875 1969.0781,63.0313 Q1970.4063,61.375 1972.9063,61.375 Q1973.6094,61.375 1974.25,61.5313 Q1974.9063,61.6875 1975.4688,61.9844 L1975.4688,64.7031 Q1974.8438,64.125 1974.25,63.8594 Q1973.6563,63.5781 1973.0313,63.5781 Q1971.6875,63.5781 1971,64.6563 Q1970.3125,65.7188 1970.3125,67.8125 Q1970.3125,69.9063 1971,70.9844 Q1971.6875,72.0469 1973.0313,72.0469 Q1973.6563,72.0469 1974.25,71.7813 Q1974.8438,71.5 1975.4688,70.9219 L1975.4688,73.6406 Z " fill="#000000"/><text fill="#000000" font-family="sans-serif" font-size="12" lengthAdjust="spacing" textLength="40" x="1989.5" y="72.1543">MyApp</text><line style="stroke:#A80036;stroke-width:1.5;" x1="1945" x2="2045" y1="84" y2="84"/><line style="stroke:#A80036;stroke-width:1.5;" x1="1945" x2="2045" y1="92" y2="92"/><ellipse cx="1955" cy="103" fill="#84BE84" rx="3" ry="3" style="stroke:#038048;stroke-width:1.0;"/><text fill="#000000" font-family="sans-serif" font-size="11" lengthAdjust="spacing" textLength="76" x="1964" y="106.2104">Widget build()</text><!--MD5=[98bf2b937dc9a58a2372334f7d8f3f87]
class todoapp::widgets::todo_item.dart::ToDoItem--><rect codeLine="73" fill="#FEFECE" filter="url(#f15oeruplobpun)" height="60.8047" id="todoapp::widgets::todo_item.dart::ToDoItem" style="stroke:#A80036;stroke-width:1.5;" width="102" x="2176" y="52"/><ellipse cx="2195.95" cy="68" fill="#ADD1B2" rx="11" ry="11" style="stroke:#A80036;stroke-width:1.0;"/><path d="M2198.9188,73.6406 Q2198.3406,73.9375 2197.7,74.0781 Q2197.0594,74.2344 2196.3563,74.2344 Q2193.8563,74.2344 2192.5281,72.5938 Q2191.2156,70.9375 2191.2156,67.8125 Q2191.2156,64.6875 2192.5281,63.0313 Q2193.8563,61.375 2196.3563,61.375 Q2197.0594,61.375 2197.7,61.5313 Q2198.3563,61.6875 2198.9188,61.9844 L2198.9188,64.7031 Q2198.2938,64.125 2197.7,63.8594 Q2197.1063,63.5781 2196.4813,63.5781 Q2195.1375,63.5781 2194.45,64.6563 Q2193.7625,65.7188 2193.7625,67.8125 Q2193.7625,69.9063 2194.45,70.9844 Q2195.1375,72.0469 2196.4813,72.0469 Q2197.1063,72.0469 2197.7,71.7813 Q2198.2938,71.5 2198.9188,70.9219 L2198.9188,73.6406 Z " fill="#000000"/><text fill="#000000" font-family="sans-serif" font-size="12" lengthAdjust="spacing" textLength="59" x="2211.05" y="72.1543">ToDoItem</text><line style="stroke:#A80036;stroke-width:1.5;" x1="2177" x2="2277" y1="84" y2="84"/><line style="stroke:#A80036;stroke-width:1.5;" x1="2177" x2="2277" y1="92" y2="92"/><ellipse cx="2187" cy="103" fill="#84BE84" rx="3" ry="3" style="stroke:#038048;stroke-width:1.0;"/><text fill="#000000" font-family="sans-serif" font-size="11" lengthAdjust="spacing" textLength="76" x="2196" y="106.2104">Widget build()</text><!--MD5=[b8fee749cd074b5f38cd067cc3fb6970]
class todoapp::widgets::todo_listview.dart::ToDoListView--><rect codeLine="77" fill="#FEFECE" filter="url(#f15oeruplobpun)" height="73.6094" id="todoapp::widgets::todo_listview.dart::ToDoListView" style="stroke:#A80036;stroke-width:1.5;" width="113" x="2479.5" y="45.5"/><ellipse cx="2494.5" cy="61.5" fill="#ADD1B2" rx="11" ry="11" style="stroke:#A80036;stroke-width:1.0;"/><path d="M2497.4688,67.1406 Q2496.8906,67.4375 2496.25,67.5781 Q2495.6094,67.7344 2494.9063,67.7344 Q2492.4063,67.7344 2491.0781,66.0938 Q2489.7656,64.4375 2489.7656,61.3125 Q2489.7656,58.1875 2491.0781,56.5313 Q2492.4063,54.875 2494.9063,54.875 Q2495.6094,54.875 2496.25,55.0313 Q2496.9063,55.1875 2497.4688,55.4844 L2497.4688,58.2031 Q2496.8438,57.625 2496.25,57.3594 Q2495.6563,57.0781 2495.0313,57.0781 Q2493.6875,57.0781 2493,58.1563 Q2492.3125,59.2188 2492.3125,61.3125 Q2492.3125,63.4063 2493,64.4844 Q2493.6875,65.5469 2495.0313,65.5469 Q2495.6563,65.5469 2496.25,65.2813 Q2496.8438,65 2497.4688,64.4219 L2497.4688,67.1406 Z " fill="#000000"/><text fill="#000000" font-family="sans-serif" font-size="12" lengthAdjust="spacing" textLength="81" x="2508.5" y="65.6543">ToDoListView</text><line style="stroke:#A80036;stroke-width:1.5;" x1="2480.5" x2="2591.5" y1="77.5" y2="77.5"/><rect fill="none" height="6" style="stroke:#C82930;stroke-width:1.0;" width="6" x="2487.5" y="85.5"/><text fill="#000000" font-family="sans-serif" font-size="11" lengthAdjust="spacing" textLength="72" x="2499.5" y="91.7104">int _tabIndex</text><line style="stroke:#A80036;stroke-width:1.5;" x1="2480.5" x2="2591.5" y1="98.3047" y2="98.3047"/><ellipse cx="2490.5" cy="109.3047" fill="#84BE84" rx="3" ry="3" style="stroke:#038048;stroke-width:1.0;"/><text fill="#000000" font-family="sans-serif" font-size="11" lengthAdjust="spacing" textLength="76" x="2499.5" y="112.5151">Widget build()</text><!--MD5=[e5c08d016d1048983c71b6206a181f81]
reverse link flutter::src::foundation::change_notifier.dart::ChangeNotifier to todoapp::providers::todos_provider.dart::ToDosProvider--><path codeLine="14" d="M290.7283,126.041 C285.1956,145.6715 278.5,169.4281 272.1949,191.7988 " fill="none" id="flutter::src::foundation::change_notifier.dart::ChangeNotifier-backto-todoapp::providers::todos_provider.dart::ToDosProvider" style="stroke:#A80036;stroke-width:1.0;"/><polygon fill="none" points="284.0388,123.9713,296.2019,106.6202,297.5139,127.7691,284.0388,123.9713" style="stroke:#A80036;stroke-width:1.0;"/><!--MD5=[787a94df1c8298c8b57a528cf15268bb]
reverse link todoapp::providers::todo.dart::ToDo to todoapp::models::status_enum.dart::Status--><path codeLine="26" d="M487,349.3063 C487,367.0387 487,385.3898 487,401.8505 " fill="none" id="todoapp::providers::todo.dart::ToDo-backto-todoapp::models::status_enum.dart::Status" style="stroke:#A80036;stroke-width:1.0;"/><polygon fill="#FFFFFF" points="487,336.2254,483,342.2254,487,348.2254,491,342.2254,487,336.2254" style="stroke:#A80036;stroke-width:1.0;"/><!--MD5=[21bcc125d820ad98858644740cb1900a]
reverse link flutter::src::foundation::change_notifier.dart::ChangeNotifier to todoapp::providers::todo.dart::ToDo--><path codeLine="27" d="M341.2239,120.8278 C363.8997,143.5652 393.2917,173.0371 419.7378,199.555 " fill="none" id="flutter::src::foundation::change_notifier.dart::ChangeNotifier-backto-todoapp::providers::todo.dart::ToDo" style="stroke:#A80036;stroke-width:1.0;"/><polygon fill="none" points="336.2213,125.7245,327.0548,106.6202,346.1342,115.8385,336.2213,125.7245" style="stroke:#A80036;stroke-width:1.0;"/><!--MD5=[9b28c482d600a36b8eaae77adc47ce46]
reverse link todoapp::models::status_enum.dart::Status to todoapp::models::status_enum.dart::Status--><path codeLine="37" d="M571.0912,425.3959 C584.1243,430.2979 593,441.166 593,458 C593,479.9873 577.8584,491.7969 558.0886,493.4288 " fill="none" id="todoapp::models::status_enum.dart::Status-backto-todoapp::models::status_enum.dart::Status" style="stroke:#A80036;stroke-width:1.0;"/><polygon fill="#FFFFFF" points="558.0886,422.5712,563.1027,427.7537,569.8151,425.1186,564.801,419.9361,558.0886,422.5712" style="stroke:#A80036;stroke-width:1.0;"/><!--MD5=[a80d3ea2e2b98831409b7b25879c000b]
reverse link todoapp::screens::add_todo_sceen.dart::_AddToDoScreenState to flutter::src::widgets::framework.dart::GlobalKey<FormState>--><path codeLine="66" d="M683.9512,144.9905 C693.6163,178.636 704.9806,218.1967 712.0882,242.939 " fill="none" id="todoapp::screens::add_todo_sceen.dart::_AddToDoScreenState-backto-flutter::src::widgets::framework.dart::GlobalKey&lt;FormState&gt;" style="stroke:#A80036;stroke-width:1.0;"/><polygon fill="#FFFFFF" points="680.3426,132.4284,678.1547,139.2996,683.6558,143.9619,685.8437,137.0908,680.3426,132.4284" style="stroke:#A80036;stroke-width:1.0;"/><!--MD5=[dcb0511770dbbbecde97ac2af89c9f09]
reverse link todoapp::screens::add_todo_sceen.dart::_AddToDoScreenState to todoapp::providers::todo.dart::ToDo--><path codeLine="67" d="M608.1619,142.1153 C590.8749,159.9334 571.7789,179.6161 553.9583,197.9843 " fill="none" id="todoapp::screens::add_todo_sceen.dart::_AddToDoScreenState-backto-todoapp::providers::todo.dart::ToDo" style="stroke:#A80036;stroke-width:1.0;"/><polygon fill="#FFFFFF" points="617.56,132.4284,610.5111,133.9494,609.2041,141.0411,616.2529,139.5201,617.56,132.4284" style="stroke:#A80036;stroke-width:1.0;"/><!--MD5=[7c393c15dcf64ae816d3fb8c5e463269]
@startuml
set namespaceSeparator ::

class "todoapp::providers::todos_provider.dart::ToDosProvider" {
  -List<ToDo> _todos
  +List<ToDo> items
  +List<ToDo> completedItems
  +List<ToDo> pendingItems
  +List<ToDo> findByStatus()
  +ToDo findById()
  +void updateStatusById()
  +void addToDo()
}

"flutter::src::foundation::change_notifier.dart::ChangeNotifier" <|- - "todoapp::providers::todos_provider.dart::ToDosProvider"

class "todoapp::providers::todo.dart::ToDo" {
  +String id
  +String title
  +String body
  +DateTime deadline
  +Status status
  +String statusString
  +void updateStaus()
}

"todoapp::providers::todo.dart::ToDo" o- - "todoapp::models::status_enum.dart::Status"
"flutter::src::foundation::change_notifier.dart::ChangeNotifier" <|- - "todoapp::providers::todo.dart::ToDo"

class "todoapp::models::status_enum.dart::Status" {
  +int index
  {static} +List<Status> values
  {static} +Status pending
  {static} +Status completed
  {static} +Status overdue
}

"todoapp::models::status_enum.dart::Status" o- - "todoapp::models::status_enum.dart::Status"

class "todoapp::screens::todo_home_screen.dart::TodoHomeScreen" {
  +_TodoHomeScreenState createState()
}

class "todoapp::screens::todo_home_screen.dart::_TodoHomeScreenState" {
  -int _tabIndex
  -void _selectTab()
  +Widget build()
}

class "todoapp::screens::todo_detail_screen.dart::TooDetailScreen" {
  {static} +String routeName
  +Widget build()
}

class "todoapp::screens::add_todo_sceen.dart::AddToDoScreen" {
  {static} +String routeName
  +_AddToDoScreenState createState()
}

class "todoapp::screens::add_todo_sceen.dart::_AddToDoScreenState" {
  -GlobalKey<FormState> _formkey
  +ToDo newToDo
  -dynamic _onSubmit()
  +Widget build()
}

"todoapp::screens::add_todo_sceen.dart::_AddToDoScreenState" o- - "flutter::src::widgets::framework.dart::GlobalKey<FormState>"
"todoapp::screens::add_todo_sceen.dart::_AddToDoScreenState" o- - "todoapp::providers::todo.dart::ToDo"

class "todoapp::main.dart::MyApp" {
  +Widget build()
}

class "todoapp::widgets::todo_item.dart::ToDoItem" {
  +Widget build()
}

class "todoapp::widgets::todo_listview.dart::ToDoListView" {
  -int _tabIndex
  +Widget build()
}
@enduml

PlantUML version 1.2021.7(Sun May 23 12:40:07 UTC 2021)
(GPL source distribution)
Java Runtime: OpenJDK Runtime Environment
JVM: OpenJDK 64-Bit Server VM
Default Encoding: UTF-8
Language: en
Country: US
--></g></svg>